solid OpenSCAD_Model
  facet normal 0 0 -1
    outer loop
      vertex 18.0459 0.0458984 0
      vertex 13.25 20 0
      vertex 18.0459 40.0459 0
    endloop
  endfacet
  facet normal 0 0 -1
    outer loop
      vertex 18.0459 0.0458984 0
      vertex 13.2401 19.8433 0
      vertex 13.25 20 0
    endloop
  endfacet
  facet normal 0 0 -1
    outer loop
      vertex 18.0459 0.0458984 0
      vertex 13.2107 19.6891 0
      vertex 13.2401 19.8433 0
    endloop
  endfacet
  facet normal 0 0 -1
    outer loop
      vertex 18.0459 0.0458984 0
      vertex 13.1622 19.5398 0
      vertex 13.2107 19.6891 0
    endloop
  endfacet
  facet normal 0 0 -1
    outer loop
      vertex 18.0459 0.0458984 0
      vertex 13.0954 19.3978 0
      vertex 13.1622 19.5398 0
    endloop
  endfacet
  facet normal 0 0 -1
    outer loop
      vertex 18.0459 0.0458984 0
      vertex 13.0113 19.2653 0
      vertex 13.0954 19.3978 0
    endloop
  endfacet
  facet normal 0 0 -1
    outer loop
      vertex 18.0459 0.0458984 0
      vertex 12.9112 19.1443 0
      vertex 13.0113 19.2653 0
    endloop
  endfacet
  facet normal 0 0 -1
    outer loop
      vertex 18.0459 0.0458984 0
      vertex 12.7968 19.0369 0
      vertex 12.9112 19.1443 0
    endloop
  endfacet
  facet normal 0 0 -1
    outer loop
      vertex 18.0459 0.0458984 0
      vertex 12.6698 18.9446 0
      vertex 12.7968 19.0369 0
    endloop
  endfacet
  facet normal 0 0 -1
    outer loop
      vertex 18.0459 0.0458984 0
      vertex 12.5322 18.869 0
      vertex 12.6698 18.9446 0
    endloop
  endfacet
  facet normal 0 0 -1
    outer loop
      vertex 18.0459 0.0458984 0
      vertex 12.3863 18.8112 0
      vertex 12.5322 18.869 0
    endloop
  endfacet
  facet normal 0 0 -1
    outer loop
      vertex 18.0459 0.0458984 0
      vertex 12.2342 18.7721 0
      vertex 12.3863 18.8112 0
    endloop
  endfacet
  facet normal 0 0 -1
    outer loop
      vertex 18.0459 0.0458984 0
      vertex 12.0785 18.7525 0
      vertex 12.2342 18.7721 0
    endloop
  endfacet
  facet normal 0 0 -1
    outer loop
      vertex 18.0459 0.0458984 0
      vertex 11.9215 18.7525 0
      vertex 12.0785 18.7525 0
    endloop
  endfacet
  facet normal 0 0 -1
    outer loop
      vertex 4 0.0498047 0
      vertex 11.9215 18.7525 0
      vertex 18.0459 0.0458984 0
    endloop
  endfacet
  facet normal -0 0 -1
    outer loop
      vertex 11.9215 18.7525 0
      vertex 4 0.0498047 0
      vertex 11.7658 18.7721 0
    endloop
  endfacet
  facet normal -0 0 -1
    outer loop
      vertex 11.7658 18.7721 0
      vertex 4 0.0498047 0
      vertex 11.6137 18.8112 0
    endloop
  endfacet
  facet normal -0 0 -1
    outer loop
      vertex 11.6137 18.8112 0
      vertex 4 0.0498047 0
      vertex 11.4678 18.869 0
    endloop
  endfacet
  facet normal -0 0 -1
    outer loop
      vertex 11.4678 18.869 0
      vertex 4 0.0498047 0
      vertex 11.3302 18.9446 0
    endloop
  endfacet
  facet normal -0 0 -1
    outer loop
      vertex 11.3302 18.9446 0
      vertex 4 0.0498047 0
      vertex 11.2032 19.0369 0
    endloop
  endfacet
  facet normal -0 0 -1
    outer loop
      vertex 11.2032 19.0369 0
      vertex 4 0.0498047 0
      vertex 11.0888 19.1443 0
    endloop
  endfacet
  facet normal -0 0 -1
    outer loop
      vertex 11.0888 19.1443 0
      vertex 4 0.0498047 0
      vertex 10.9887 19.2653 0
    endloop
  endfacet
  facet normal -0 0 -1
    outer loop
      vertex 10.9887 19.2653 0
      vertex 4 0.0498047 0
      vertex 10.9046 19.3978 0
    endloop
  endfacet
  facet normal -0 0 -1
    outer loop
      vertex 10.7599 19.8433 0
      vertex 4 0.0498047 0
      vertex 10.75 20 0
    endloop
  endfacet
  facet normal -0 0 -1
    outer loop
      vertex 10.7893 19.6891 0
      vertex 4 0.0498047 0
      vertex 10.7599 19.8433 0
    endloop
  endfacet
  facet normal -0 0 -1
    outer loop
      vertex 10.8378 19.5398 0
      vertex 4 0.0498047 0
      vertex 10.7893 19.6891 0
    endloop
  endfacet
  facet normal -0 0 -1
    outer loop
      vertex 10.9046 19.3978 0
      vertex 4 0.0498047 0
      vertex 10.8378 19.5398 0
    endloop
  endfacet
  facet normal 0 0 -1
    outer loop
      vertex 0.0458984 0.0458984 0
      vertex 4 0.0498047 0
      vertex 18.0459 0.0458984 0
    endloop
  endfacet
  facet normal -0 0 -1
    outer loop
      vertex 4 0.0498047 0
      vertex 0.0458984 0.0458984 0
      vertex 0.0458984 0.0498047 0
    endloop
  endfacet
  facet normal 0 0 -1
    outer loop
      vertex 13.2401 20.1567 0
      vertex 18.0459 40.0459 0
      vertex 13.25 20 0
    endloop
  endfacet
  facet normal 0 0 -1
    outer loop
      vertex 13.2107 20.3109 0
      vertex 18.0459 40.0459 0
      vertex 13.2401 20.1567 0
    endloop
  endfacet
  facet normal 0 0 -1
    outer loop
      vertex 13.1622 20.4602 0
      vertex 18.0459 40.0459 0
      vertex 13.2107 20.3109 0
    endloop
  endfacet
  facet normal 0 0 -1
    outer loop
      vertex 13.0954 20.6022 0
      vertex 18.0459 40.0459 0
      vertex 13.1622 20.4602 0
    endloop
  endfacet
  facet normal 0 0 -1
    outer loop
      vertex 13.0113 20.7347 0
      vertex 18.0459 40.0459 0
      vertex 13.0954 20.6022 0
    endloop
  endfacet
  facet normal 0 0 -1
    outer loop
      vertex 12.9112 20.8557 0
      vertex 18.0459 40.0459 0
      vertex 13.0113 20.7347 0
    endloop
  endfacet
  facet normal 0 0 -1
    outer loop
      vertex 12.7968 20.9631 0
      vertex 18.0459 40.0459 0
      vertex 12.9112 20.8557 0
    endloop
  endfacet
  facet normal 0 0 -1
    outer loop
      vertex 12.6698 21.0554 0
      vertex 18.0459 40.0459 0
      vertex 12.7968 20.9631 0
    endloop
  endfacet
  facet normal 0 0 -1
    outer loop
      vertex 12.5322 21.131 0
      vertex 18.0459 40.0459 0
      vertex 12.6698 21.0554 0
    endloop
  endfacet
  facet normal 0 0 -1
    outer loop
      vertex 12.3863 21.1888 0
      vertex 18.0459 40.0459 0
      vertex 12.5322 21.131 0
    endloop
  endfacet
  facet normal 0 0 -1
    outer loop
      vertex 12.2342 21.2279 0
      vertex 18.0459 40.0459 0
      vertex 12.3863 21.1888 0
    endloop
  endfacet
  facet normal 0 0 -1
    outer loop
      vertex 12.0785 21.2475 0
      vertex 18.0459 40.0459 0
      vertex 12.2342 21.2279 0
    endloop
  endfacet
  facet normal 0 0 -1
    outer loop
      vertex 11.9215 21.2475 0
      vertex 18.0459 40.0459 0
      vertex 12.0785 21.2475 0
    endloop
  endfacet
  facet normal 0 0 -1
    outer loop
      vertex 4 40.0459 0
      vertex 11.9215 21.2475 0
      vertex 11.7658 21.2279 0
    endloop
  endfacet
  facet normal 0 0 -1
    outer loop
      vertex 4 40.0459 0
      vertex 11.7658 21.2279 0
      vertex 11.6137 21.1888 0
    endloop
  endfacet
  facet normal 0 0 -1
    outer loop
      vertex 4 40.0459 0
      vertex 11.6137 21.1888 0
      vertex 11.4678 21.131 0
    endloop
  endfacet
  facet normal 0 0 -1
    outer loop
      vertex 4 40.0459 0
      vertex 11.4678 21.131 0
      vertex 11.3302 21.0554 0
    endloop
  endfacet
  facet normal 0 0 -1
    outer loop
      vertex 4 40.0459 0
      vertex 11.3302 21.0554 0
      vertex 11.2032 20.9631 0
    endloop
  endfacet
  facet normal 0 0 -1
    outer loop
      vertex 4 40.0459 0
      vertex 11.2032 20.9631 0
      vertex 11.0888 20.8557 0
    endloop
  endfacet
  facet normal 0 0 -1
    outer loop
      vertex 4 40.0459 0
      vertex 11.0888 20.8557 0
      vertex 10.9887 20.7347 0
    endloop
  endfacet
  facet normal 0 0 -1
    outer loop
      vertex 4 40.0459 0
      vertex 10.9887 20.7347 0
      vertex 10.9046 20.6022 0
    endloop
  endfacet
  facet normal 0 0 -1
    outer loop
      vertex 4 40.0459 0
      vertex 10.9046 20.6022 0
      vertex 10.8378 20.4602 0
    endloop
  endfacet
  facet normal 0 0 -1
    outer loop
      vertex 4 40.0459 0
      vertex 10.75 20 0
      vertex 4 0.0498047 0
    endloop
  endfacet
  facet normal 0 0 -1
    outer loop
      vertex 10.75 20 0
      vertex 4 40.0459 0
      vertex 10.7599 20.1567 0
    endloop
  endfacet
  facet normal 0 0 -1
    outer loop
      vertex 10.7599 20.1567 0
      vertex 4 40.0459 0
      vertex 10.7893 20.3109 0
    endloop
  endfacet
  facet normal 0 0 -1
    outer loop
      vertex 11.9215 21.2475 0
      vertex 4 40.0459 0
      vertex 18.0459 40.0459 0
    endloop
  endfacet
  facet normal 0 0 -1
    outer loop
      vertex 10.7893 20.3109 0
      vertex 4 40.0459 0
      vertex 10.8378 20.4602 0
    endloop
  endfacet
  facet normal 1 -0 0
    outer loop
      vertex 18.0459 0.0458984 4
      vertex 18.0459 40.0459 0
      vertex 18.0459 40.0459 4
    endloop
  endfacet
  facet normal 1 0 0
    outer loop
      vertex 18.0459 40.0459 0
      vertex 18.0459 0.0458984 4
      vertex 18.0459 0.0458984 0
    endloop
  endfacet
  facet normal 0 -1 0
    outer loop
      vertex 0.0458984 0.0458984 0
      vertex 18.0459 0.0458984 4
      vertex 0.0458984 0.0458984 4
    endloop
  endfacet
  facet normal 0 -1 -0
    outer loop
      vertex 18.0459 0.0458984 4
      vertex 0.0458984 0.0458984 0
      vertex 18.0459 0.0458984 0
    endloop
  endfacet
  facet normal 0 0 1
    outer loop
      vertex 18.0459 40.0459 4
      vertex 13.25 20 4
      vertex 18.0459 0.0458984 4
    endloop
  endfacet
  facet normal 0 0 1
    outer loop
      vertex 18.0459 40.0459 4
      vertex 13.2401 20.1567 4
      vertex 13.25 20 4
    endloop
  endfacet
  facet normal 0 0 1
    outer loop
      vertex 18.0459 40.0459 4
      vertex 13.2107 20.3109 4
      vertex 13.2401 20.1567 4
    endloop
  endfacet
  facet normal 0 0 1
    outer loop
      vertex 18.0459 40.0459 4
      vertex 13.1622 20.4602 4
      vertex 13.2107 20.3109 4
    endloop
  endfacet
  facet normal 0 0 1
    outer loop
      vertex 18.0459 40.0459 4
      vertex 13.0954 20.6022 4
      vertex 13.1622 20.4602 4
    endloop
  endfacet
  facet normal 0 0 1
    outer loop
      vertex 18.0459 40.0459 4
      vertex 13.0113 20.7347 4
      vertex 13.0954 20.6022 4
    endloop
  endfacet
  facet normal 0 0 1
    outer loop
      vertex 18.0459 40.0459 4
      vertex 12.9112 20.8557 4
      vertex 13.0113 20.7347 4
    endloop
  endfacet
  facet normal 0 0 1
    outer loop
      vertex 18.0459 40.0459 4
      vertex 12.7968 20.9631 4
      vertex 12.9112 20.8557 4
    endloop
  endfacet
  facet normal 0 0 1
    outer loop
      vertex 18.0459 40.0459 4
      vertex 12.6698 21.0554 4
      vertex 12.7968 20.9631 4
    endloop
  endfacet
  facet normal 0 0 1
    outer loop
      vertex 18.0459 40.0459 4
      vertex 12.5322 21.131 4
      vertex 12.6698 21.0554 4
    endloop
  endfacet
  facet normal 0 0 1
    outer loop
      vertex 18.0459 40.0459 4
      vertex 12.3863 21.1888 4
      vertex 12.5322 21.131 4
    endloop
  endfacet
  facet normal 0 0 1
    outer loop
      vertex 18.0459 40.0459 4
      vertex 12.2342 21.2279 4
      vertex 12.3863 21.1888 4
    endloop
  endfacet
  facet normal 0 0 1
    outer loop
      vertex 18.0459 40.0459 4
      vertex 12.0785 21.2475 4
      vertex 12.2342 21.2279 4
    endloop
  endfacet
  facet normal 0 0 1
    outer loop
      vertex 18.0459 40.0459 4
      vertex 11.9215 21.2475 4
      vertex 12.0785 21.2475 4
    endloop
  endfacet
  facet normal 0 0 1
    outer loop
      vertex 18.0459 40.0459 4
      vertex 11.7658 21.2279 4
      vertex 11.9215 21.2475 4
    endloop
  endfacet
  facet normal -0 0 1
    outer loop
      vertex 0.0458984 40.0459 4
      vertex 11.7658 21.2279 4
      vertex 18.0459 40.0459 4
    endloop
  endfacet
  facet normal 0 0 1
    outer loop
      vertex 11.7658 21.2279 4
      vertex 0.0458984 40.0459 4
      vertex 11.6137 21.1888 4
    endloop
  endfacet
  facet normal 0 0 1
    outer loop
      vertex 11.6137 21.1888 4
      vertex 0.0458984 40.0459 4
      vertex 11.4678 21.131 4
    endloop
  endfacet
  facet normal 0 0 1
    outer loop
      vertex 11.4678 21.131 4
      vertex 0.0458984 40.0459 4
      vertex 11.3302 21.0554 4
    endloop
  endfacet
  facet normal 0 0 1
    outer loop
      vertex 11.3302 21.0554 4
      vertex 0.0458984 40.0459 4
      vertex 11.2032 20.9631 4
    endloop
  endfacet
  facet normal 0 0 1
    outer loop
      vertex 11.2032 20.9631 4
      vertex 0.0458984 40.0459 4
      vertex 11.0888 20.8557 4
    endloop
  endfacet
  facet normal 0 0 1
    outer loop
      vertex 11.0888 20.8557 4
      vertex 0.0458984 40.0459 4
      vertex 10.9887 20.7347 4
    endloop
  endfacet
  facet normal 0 0 1
    outer loop
      vertex 10.9887 20.7347 4
      vertex 0.0458984 40.0459 4
      vertex 10.9046 20.6022 4
    endloop
  endfacet
  facet normal 0 0 1
    outer loop
      vertex 10.7599 20.1567 4
      vertex 0.0458984 40.0459 4
      vertex 10.75 20 4
    endloop
  endfacet
  facet normal 0 0 1
    outer loop
      vertex 10.7893 20.3109 4
      vertex 0.0458984 40.0459 4
      vertex 10.7599 20.1567 4
    endloop
  endfacet
  facet normal 0 0 1
    outer loop
      vertex 10.8378 20.4602 4
      vertex 0.0458984 40.0459 4
      vertex 10.7893 20.3109 4
    endloop
  endfacet
  facet normal 0 0 1
    outer loop
      vertex 10.9046 20.6022 4
      vertex 0.0458984 40.0459 4
      vertex 10.8378 20.4602 4
    endloop
  endfacet
  facet normal -0 0 1
    outer loop
      vertex 13.2401 19.8433 4
      vertex 18.0459 0.0458984 4
      vertex 13.25 20 4
    endloop
  endfacet
  facet normal -0 0 1
    outer loop
      vertex 13.2107 19.6891 4
      vertex 18.0459 0.0458984 4
      vertex 13.2401 19.8433 4
    endloop
  endfacet
  facet normal -0 0 1
    outer loop
      vertex 13.1622 19.5398 4
      vertex 18.0459 0.0458984 4
      vertex 13.2107 19.6891 4
    endloop
  endfacet
  facet normal -0 0 1
    outer loop
      vertex 13.0954 19.3978 4
      vertex 18.0459 0.0458984 4
      vertex 13.1622 19.5398 4
    endloop
  endfacet
  facet normal -0 0 1
    outer loop
      vertex 13.0113 19.2653 4
      vertex 18.0459 0.0458984 4
      vertex 13.0954 19.3978 4
    endloop
  endfacet
  facet normal -0 0 1
    outer loop
      vertex 12.9112 19.1443 4
      vertex 18.0459 0.0458984 4
      vertex 13.0113 19.2653 4
    endloop
  endfacet
  facet normal -0 0 1
    outer loop
      vertex 12.7968 19.0369 4
      vertex 18.0459 0.0458984 4
      vertex 12.9112 19.1443 4
    endloop
  endfacet
  facet normal -0 0 1
    outer loop
      vertex 12.6698 18.9446 4
      vertex 18.0459 0.0458984 4
      vertex 12.7968 19.0369 4
    endloop
  endfacet
  facet normal -0 0 1
    outer loop
      vertex 12.5322 18.869 4
      vertex 18.0459 0.0458984 4
      vertex 12.6698 18.9446 4
    endloop
  endfacet
  facet normal -0 0 1
    outer loop
      vertex 12.3863 18.8112 4
      vertex 18.0459 0.0458984 4
      vertex 12.5322 18.869 4
    endloop
  endfacet
  facet normal -0 0 1
    outer loop
      vertex 12.2342 18.7721 4
      vertex 18.0459 0.0458984 4
      vertex 12.3863 18.8112 4
    endloop
  endfacet
  facet normal -0 0 1
    outer loop
      vertex 12.0785 18.7525 4
      vertex 18.0459 0.0458984 4
      vertex 12.2342 18.7721 4
    endloop
  endfacet
  facet normal -0 0 1
    outer loop
      vertex 11.9215 18.7525 4
      vertex 18.0459 0.0458984 4
      vertex 12.0785 18.7525 4
    endloop
  endfacet
  facet normal 0 0 1
    outer loop
      vertex 11.7658 18.7721 4
      vertex 18.0459 0.0458984 4
      vertex 11.9215 18.7525 4
    endloop
  endfacet
  facet normal 0 0 1
    outer loop
      vertex 0.0458984 0.0458984 4
      vertex 11.7658 18.7721 4
      vertex 11.6137 18.8112 4
    endloop
  endfacet
  facet normal 0 0 1
    outer loop
      vertex 0.0458984 0.0458984 4
      vertex 11.6137 18.8112 4
      vertex 11.4678 18.869 4
    endloop
  endfacet
  facet normal 0 0 1
    outer loop
      vertex 0.0458984 0.0458984 4
      vertex 11.4678 18.869 4
      vertex 11.3302 18.9446 4
    endloop
  endfacet
  facet normal 0 0 1
    outer loop
      vertex 0.0458984 0.0458984 4
      vertex 11.3302 18.9446 4
      vertex 11.2032 19.0369 4
    endloop
  endfacet
  facet normal 0 0 1
    outer loop
      vertex 0.0458984 0.0458984 4
      vertex 11.2032 19.0369 4
      vertex 11.0888 19.1443 4
    endloop
  endfacet
  facet normal 0 0 1
    outer loop
      vertex 0.0458984 0.0458984 4
      vertex 11.0888 19.1443 4
      vertex 10.9887 19.2653 4
    endloop
  endfacet
  facet normal 0 0 1
    outer loop
      vertex 0.0458984 0.0458984 4
      vertex 10.9887 19.2653 4
      vertex 10.9046 19.3978 4
    endloop
  endfacet
  facet normal 0 0 1
    outer loop
      vertex 0.0458984 0.0458984 4
      vertex 10.9046 19.3978 4
      vertex 10.8378 19.5398 4
    endloop
  endfacet
  facet normal 0 0 1
    outer loop
      vertex 0.0458984 0.0458984 4
      vertex 10.75 20 4
      vertex 0.0458984 40.0459 4
    endloop
  endfacet
  facet normal 0 0 1
    outer loop
      vertex 10.75 20 4
      vertex 0.0458984 0.0458984 4
      vertex 10.7599 19.8433 4
    endloop
  endfacet
  facet normal 0 0 1
    outer loop
      vertex 10.7599 19.8433 4
      vertex 0.0458984 0.0458984 4
      vertex 10.7893 19.6891 4
    endloop
  endfacet
  facet normal 0 0 1
    outer loop
      vertex 10.7893 19.6891 4
      vertex 0.0458984 0.0458984 4
      vertex 10.8378 19.5398 4
    endloop
  endfacet
  facet normal 0 0 1
    outer loop
      vertex 11.7658 18.7721 4
      vertex 0.0458984 0.0458984 4
      vertex 18.0459 0.0458984 4
    endloop
  endfacet
  facet normal -1 0 0
    outer loop
      vertex 0.0458984 0.0498047 0
      vertex 0.0458984 0.0458984 0
      vertex 0.0458984 0.0498047 3.9502
    endloop
  endfacet
  facet normal -1 0 0
    outer loop
      vertex 0.0458984 0.0498047 3.9502
      vertex 0.0458984 40.0459 4
      vertex 0.0458984 40.0459 3.9502
    endloop
  endfacet
  facet normal -1 0 0
    outer loop
      vertex 0.0458984 0.0498047 3.9502
      vertex 0.0458984 0.0458984 4
      vertex 0.0458984 40.0459 4
    endloop
  endfacet
  facet normal -1 0 0
    outer loop
      vertex 0.0458984 0.0458984 4
      vertex 0.0458984 0.0498047 3.9502
      vertex 0.0458984 0.0458984 0
    endloop
  endfacet
  facet normal 0 1 0
    outer loop
      vertex 18.0459 40.0459 4
      vertex 4 40.0459 3.9502
      vertex 0.0458984 40.0459 4
    endloop
  endfacet
  facet normal 0 1 -0
    outer loop
      vertex 18.0459 40.0459 0
      vertex 4 40.0459 3.9502
      vertex 18.0459 40.0459 4
    endloop
  endfacet
  facet normal 0 1 0
    outer loop
      vertex 4 40.0459 3.9502
      vertex 18.0459 40.0459 0
      vertex 4 40.0459 0
    endloop
  endfacet
  facet normal 0 1 0
    outer loop
      vertex 0.0458984 40.0459 4
      vertex 4 40.0459 3.9502
      vertex 0.0458984 40.0459 3.9502
    endloop
  endfacet
  facet normal 0.951076 0.308956 0
    outer loop
      vertex 10.8378 19.5398 4
      vertex 10.7893 19.6891 0
      vertex 10.7893 19.6891 4
    endloop
  endfacet
  facet normal 0.951076 0.308956 0
    outer loop
      vertex 10.7893 19.6891 0
      vertex 10.8378 19.5398 4
      vertex 10.8378 19.5398 0
    endloop
  endfacet
  facet normal -0.982305 -0.187288 0
    outer loop
      vertex 13.2401 20.1567 0
      vertex 13.2107 20.3109 4
      vertex 13.2107 20.3109 0
    endloop
  endfacet
  facet normal -0.982305 -0.187288 0
    outer loop
      vertex 13.2107 20.3109 4
      vertex 13.2401 20.1567 0
      vertex 13.2401 20.1567 4
    endloop
  endfacet
  facet normal -0.99801 -0.0630523 0
    outer loop
      vertex 13.25 20 0
      vertex 13.2401 20.1567 4
      vertex 13.2401 20.1567 0
    endloop
  endfacet
  facet normal -0.99801 -0.0630523 0
    outer loop
      vertex 13.2401 20.1567 4
      vertex 13.25 20 0
      vertex 13.25 20 4
    endloop
  endfacet
  facet normal 0.982305 -0.187288 0
    outer loop
      vertex 10.7599 20.1567 4
      vertex 10.7893 20.3109 0
      vertex 10.7893 20.3109 4
    endloop
  endfacet
  facet normal 0.982305 -0.187288 0
    outer loop
      vertex 10.7893 20.3109 0
      vertex 10.7599 20.1567 4
      vertex 10.7599 20.1567 0
    endloop
  endfacet
  facet normal 0.248973 -0.96851 0
    outer loop
      vertex 11.6137 21.1888 0
      vertex 11.7658 21.2279 4
      vertex 11.6137 21.1888 4
    endloop
  endfacet
  facet normal 0.248973 -0.96851 0
    outer loop
      vertex 11.7658 21.2279 4
      vertex 11.6137 21.1888 0
      vertex 11.7658 21.2279 0
    endloop
  endfacet
  facet normal -0.68445 -0.72906 0
    outer loop
      vertex 12.7968 20.9631 0
      vertex 12.9112 20.8557 4
      vertex 12.7968 20.9631 4
    endloop
  endfacet
  facet normal -0.68445 -0.72906 -0
    outer loop
      vertex 12.9112 20.8557 4
      vertex 12.7968 20.9631 0
      vertex 12.9112 20.8557 0
    endloop
  endfacet
  facet normal -0.248973 0.96851 0
    outer loop
      vertex 12.3863 18.8112 0
      vertex 12.2342 18.7721 4
      vertex 12.3863 18.8112 4
    endloop
  endfacet
  facet normal -0.248973 0.96851 0
    outer loop
      vertex 12.2342 18.7721 4
      vertex 12.3863 18.8112 0
      vertex 12.2342 18.7721 0
    endloop
  endfacet
  facet normal 0.904876 0.425674 0
    outer loop
      vertex 10.9046 19.3978 4
      vertex 10.8378 19.5398 0
      vertex 10.8378 19.5398 4
    endloop
  endfacet
  facet normal 0.904876 0.425674 0
    outer loop
      vertex 10.8378 19.5398 0
      vertex 10.9046 19.3978 4
      vertex 10.9046 19.3978 0
    endloop
  endfacet
  facet normal 0.951076 -0.308956 0
    outer loop
      vertex 10.7893 20.3109 4
      vertex 10.8378 20.4602 0
      vertex 10.8378 20.4602 4
    endloop
  endfacet
  facet normal 0.951076 -0.308956 0
    outer loop
      vertex 10.8378 20.4602 0
      vertex 10.7893 20.3109 4
      vertex 10.7893 20.3109 0
    endloop
  endfacet
  facet normal -0.124897 0.99217 0
    outer loop
      vertex 12.2342 18.7721 0
      vertex 12.0785 18.7525 4
      vertex 12.2342 18.7721 4
    endloop
  endfacet
  facet normal -0.124897 0.99217 0
    outer loop
      vertex 12.0785 18.7525 4
      vertex 12.2342 18.7721 0
      vertex 12.0785 18.7525 0
    endloop
  endfacet
  facet normal 0 1 -0
    outer loop
      vertex 12.0785 18.7525 0
      vertex 11.9215 18.7525 4
      vertex 12.0785 18.7525 4
    endloop
  endfacet
  facet normal 0 1 0
    outer loop
      vertex 11.9215 18.7525 4
      vertex 12.0785 18.7525 0
      vertex 11.9215 18.7525 0
    endloop
  endfacet
  facet normal -0.982305 0.187288 0
    outer loop
      vertex 13.2107 19.6891 0
      vertex 13.2401 19.8433 4
      vertex 13.2401 19.8433 0
    endloop
  endfacet
  facet normal -0.982305 0.187288 0
    outer loop
      vertex 13.2401 19.8433 4
      vertex 13.2107 19.6891 0
      vertex 13.2107 19.6891 4
    endloop
  endfacet
  facet normal 0.587907 -0.808929 0
    outer loop
      vertex 11.2032 20.9631 0
      vertex 11.3302 21.0554 4
      vertex 11.2032 20.9631 4
    endloop
  endfacet
  facet normal 0.587907 -0.808929 0
    outer loop
      vertex 11.3302 21.0554 4
      vertex 11.2032 20.9631 0
      vertex 11.3302 21.0554 0
    endloop
  endfacet
  facet normal -0.951076 0.308956 0
    outer loop
      vertex 13.1622 19.5398 0
      vertex 13.2107 19.6891 4
      vertex 13.2107 19.6891 0
    endloop
  endfacet
  facet normal -0.951076 0.308956 0
    outer loop
      vertex 13.2107 19.6891 4
      vertex 13.1622 19.5398 0
      vertex 13.1622 19.5398 4
    endloop
  endfacet
  facet normal 0.99801 0.0630523 0
    outer loop
      vertex 10.7599 19.8433 4
      vertex 10.75 20 0
      vertex 10.75 20 4
    endloop
  endfacet
  facet normal 0.99801 0.0630523 0
    outer loop
      vertex 10.75 20 0
      vertex 10.7599 19.8433 4
      vertex 10.7599 19.8433 0
    endloop
  endfacet
  facet normal 0.368312 -0.929702 0
    outer loop
      vertex 11.4678 21.131 0
      vertex 11.6137 21.1888 4
      vertex 11.4678 21.131 4
    endloop
  endfacet
  facet normal 0.368312 -0.929702 0
    outer loop
      vertex 11.6137 21.1888 4
      vertex 11.4678 21.131 0
      vertex 11.6137 21.1888 0
    endloop
  endfacet
  facet normal -0.124897 -0.99217 0
    outer loop
      vertex 12.0785 21.2475 0
      vertex 12.2342 21.2279 4
      vertex 12.0785 21.2475 4
    endloop
  endfacet
  facet normal -0.124897 -0.99217 -0
    outer loop
      vertex 12.2342 21.2279 4
      vertex 12.0785 21.2475 0
      vertex 12.2342 21.2279 0
    endloop
  endfacet
  facet normal -0.481527 0.876431 0
    outer loop
      vertex 12.6698 18.9446 0
      vertex 12.5322 18.869 4
      vertex 12.6698 18.9446 4
    endloop
  endfacet
  facet normal -0.481527 0.876431 0
    outer loop
      vertex 12.5322 18.869 4
      vertex 12.6698 18.9446 0
      vertex 12.5322 18.869 0
    endloop
  endfacet
  facet normal -0.904876 0.425674 0
    outer loop
      vertex 13.0954 19.3978 0
      vertex 13.1622 19.5398 4
      vertex 13.1622 19.5398 0
    endloop
  endfacet
  facet normal -0.904876 0.425674 0
    outer loop
      vertex 13.1622 19.5398 4
      vertex 13.0954 19.3978 0
      vertex 13.0954 19.3978 4
    endloop
  endfacet
  facet normal -0.368312 0.929702 0
    outer loop
      vertex 12.5322 18.869 0
      vertex 12.3863 18.8112 4
      vertex 12.5322 18.869 4
    endloop
  endfacet
  facet normal -0.368312 0.929702 0
    outer loop
      vertex 12.3863 18.8112 4
      vertex 12.5322 18.869 0
      vertex 12.3863 18.8112 0
    endloop
  endfacet
  facet normal 0.904876 -0.425674 0
    outer loop
      vertex 10.8378 20.4602 4
      vertex 10.9046 20.6022 0
      vertex 10.9046 20.6022 4
    endloop
  endfacet
  facet normal 0.904876 -0.425674 0
    outer loop
      vertex 10.9046 20.6022 0
      vertex 10.8378 20.4602 4
      vertex 10.8378 20.4602 0
    endloop
  endfacet
  facet normal -0.904876 -0.425674 0
    outer loop
      vertex 13.1622 20.4602 0
      vertex 13.0954 20.6022 4
      vertex 13.0954 20.6022 0
    endloop
  endfacet
  facet normal -0.904876 -0.425674 0
    outer loop
      vertex 13.0954 20.6022 4
      vertex 13.1622 20.4602 0
      vertex 13.1622 20.4602 4
    endloop
  endfacet
  facet normal 0.99801 -0.0630523 0
    outer loop
      vertex 10.75 20 4
      vertex 10.7599 20.1567 0
      vertex 10.7599 20.1567 4
    endloop
  endfacet
  facet normal 0.99801 -0.0630523 0
    outer loop
      vertex 10.7599 20.1567 0
      vertex 10.75 20 4
      vertex 10.75 20 0
    endloop
  endfacet
  facet normal -0.844291 -0.535886 0
    outer loop
      vertex 13.0954 20.6022 0
      vertex 13.0113 20.7347 4
      vertex 13.0113 20.7347 0
    endloop
  endfacet
  facet normal -0.844291 -0.535886 0
    outer loop
      vertex 13.0113 20.7347 4
      vertex 13.0954 20.6022 0
      vertex 13.0954 20.6022 4
    endloop
  endfacet
  facet normal 0.68445 0.72906 -0
    outer loop
      vertex 11.2032 19.0369 0
      vertex 11.0888 19.1443 4
      vertex 11.2032 19.0369 4
    endloop
  endfacet
  facet normal 0.68445 0.72906 0
    outer loop
      vertex 11.0888 19.1443 4
      vertex 11.2032 19.0369 0
      vertex 11.0888 19.1443 0
    endloop
  endfacet
  facet normal 0.844291 0.535886 0
    outer loop
      vertex 10.9887 19.2653 4
      vertex 10.9046 19.3978 0
      vertex 10.9046 19.3978 4
    endloop
  endfacet
  facet normal 0.844291 0.535886 0
    outer loop
      vertex 10.9046 19.3978 0
      vertex 10.9887 19.2653 4
      vertex 10.9887 19.2653 0
    endloop
  endfacet
  facet normal 0.481527 0.876431 -0
    outer loop
      vertex 11.4678 18.869 0
      vertex 11.3302 18.9446 4
      vertex 11.4678 18.869 4
    endloop
  endfacet
  facet normal 0.481527 0.876431 0
    outer loop
      vertex 11.3302 18.9446 4
      vertex 11.4678 18.869 0
      vertex 11.3302 18.9446 0
    endloop
  endfacet
  facet normal -0.587907 -0.808929 0
    outer loop
      vertex 12.6698 21.0554 0
      vertex 12.7968 20.9631 4
      vertex 12.6698 21.0554 4
    endloop
  endfacet
  facet normal -0.587907 -0.808929 -0
    outer loop
      vertex 12.7968 20.9631 4
      vertex 12.6698 21.0554 0
      vertex 12.7968 20.9631 0
    endloop
  endfacet
  facet normal -0.99801 0.0630523 0
    outer loop
      vertex 13.2401 19.8433 0
      vertex 13.25 20 4
      vertex 13.25 20 0
    endloop
  endfacet
  facet normal -0.99801 0.0630523 0
    outer loop
      vertex 13.25 20 4
      vertex 13.2401 19.8433 0
      vertex 13.2401 19.8433 4
    endloop
  endfacet
  facet normal 0.481527 -0.876431 0
    outer loop
      vertex 11.3302 21.0554 0
      vertex 11.4678 21.131 4
      vertex 11.3302 21.0554 4
    endloop
  endfacet
  facet normal 0.481527 -0.876431 0
    outer loop
      vertex 11.4678 21.131 4
      vertex 11.3302 21.0554 0
      vertex 11.4678 21.131 0
    endloop
  endfacet
  facet normal -0.587907 0.808929 0
    outer loop
      vertex 12.7968 19.0369 0
      vertex 12.6698 18.9446 4
      vertex 12.7968 19.0369 4
    endloop
  endfacet
  facet normal -0.587907 0.808929 0
    outer loop
      vertex 12.6698 18.9446 4
      vertex 12.7968 19.0369 0
      vertex 12.6698 18.9446 0
    endloop
  endfacet
  facet normal 0.844291 -0.535886 0
    outer loop
      vertex 10.9046 20.6022 4
      vertex 10.9887 20.7347 0
      vertex 10.9887 20.7347 4
    endloop
  endfacet
  facet normal 0.844291 -0.535886 0
    outer loop
      vertex 10.9887 20.7347 0
      vertex 10.9046 20.6022 4
      vertex 10.9046 20.6022 0
    endloop
  endfacet
  facet normal -0.248973 -0.96851 0
    outer loop
      vertex 12.2342 21.2279 0
      vertex 12.3863 21.1888 4
      vertex 12.2342 21.2279 4
    endloop
  endfacet
  facet normal -0.248973 -0.96851 -0
    outer loop
      vertex 12.3863 21.1888 4
      vertex 12.2342 21.2279 0
      vertex 12.3863 21.1888 0
    endloop
  endfacet
  facet normal 0.770513 0.637424 0
    outer loop
      vertex 11.0888 19.1443 4
      vertex 10.9887 19.2653 0
      vertex 10.9887 19.2653 4
    endloop
  endfacet
  facet normal 0.770513 0.637424 0
    outer loop
      vertex 10.9887 19.2653 0
      vertex 11.0888 19.1443 4
      vertex 11.0888 19.1443 0
    endloop
  endfacet
  facet normal -0.770513 0.637424 0
    outer loop
      vertex 12.9112 19.1443 0
      vertex 13.0113 19.2653 4
      vertex 13.0113 19.2653 0
    endloop
  endfacet
  facet normal -0.770513 0.637424 0
    outer loop
      vertex 13.0113 19.2653 4
      vertex 12.9112 19.1443 0
      vertex 12.9112 19.1443 4
    endloop
  endfacet
  facet normal -0.368312 -0.929702 0
    outer loop
      vertex 12.3863 21.1888 0
      vertex 12.5322 21.131 4
      vertex 12.3863 21.1888 4
    endloop
  endfacet
  facet normal -0.368312 -0.929702 -0
    outer loop
      vertex 12.5322 21.131 4
      vertex 12.3863 21.1888 0
      vertex 12.5322 21.131 0
    endloop
  endfacet
  facet normal 0.982305 0.187288 0
    outer loop
      vertex 10.7893 19.6891 4
      vertex 10.7599 19.8433 0
      vertex 10.7599 19.8433 4
    endloop
  endfacet
  facet normal 0.982305 0.187288 0
    outer loop
      vertex 10.7599 19.8433 0
      vertex 10.7893 19.6891 4
      vertex 10.7893 19.6891 0
    endloop
  endfacet
  facet normal -0.481527 -0.876431 0
    outer loop
      vertex 12.5322 21.131 0
      vertex 12.6698 21.0554 4
      vertex 12.5322 21.131 4
    endloop
  endfacet
  facet normal -0.481527 -0.876431 -0
    outer loop
      vertex 12.6698 21.0554 4
      vertex 12.5322 21.131 0
      vertex 12.6698 21.0554 0
    endloop
  endfacet
  facet normal 0.124897 0.99217 -0
    outer loop
      vertex 11.9215 18.7525 0
      vertex 11.7658 18.7721 4
      vertex 11.9215 18.7525 4
    endloop
  endfacet
  facet normal 0.124897 0.99217 0
    outer loop
      vertex 11.7658 18.7721 4
      vertex 11.9215 18.7525 0
      vertex 11.7658 18.7721 0
    endloop
  endfacet
  facet normal -0.844291 0.535886 0
    outer loop
      vertex 13.0113 19.2653 0
      vertex 13.0954 19.3978 4
      vertex 13.0954 19.3978 0
    endloop
  endfacet
  facet normal -0.844291 0.535886 0
    outer loop
      vertex 13.0954 19.3978 4
      vertex 13.0113 19.2653 0
      vertex 13.0113 19.2653 4
    endloop
  endfacet
  facet normal -0.770513 -0.637424 0
    outer loop
      vertex 13.0113 20.7347 0
      vertex 12.9112 20.8557 4
      vertex 12.9112 20.8557 0
    endloop
  endfacet
  facet normal -0.770513 -0.637424 0
    outer loop
      vertex 12.9112 20.8557 4
      vertex 13.0113 20.7347 0
      vertex 13.0113 20.7347 4
    endloop
  endfacet
  facet normal -0.951076 -0.308956 0
    outer loop
      vertex 13.2107 20.3109 0
      vertex 13.1622 20.4602 4
      vertex 13.1622 20.4602 0
    endloop
  endfacet
  facet normal -0.951076 -0.308956 0
    outer loop
      vertex 13.1622 20.4602 4
      vertex 13.2107 20.3109 0
      vertex 13.2107 20.3109 4
    endloop
  endfacet
  facet normal 0.68445 -0.72906 0
    outer loop
      vertex 11.0888 20.8557 0
      vertex 11.2032 20.9631 4
      vertex 11.0888 20.8557 4
    endloop
  endfacet
  facet normal 0.68445 -0.72906 0
    outer loop
      vertex 11.2032 20.9631 4
      vertex 11.0888 20.8557 0
      vertex 11.2032 20.9631 0
    endloop
  endfacet
  facet normal 0.770513 -0.637424 0
    outer loop
      vertex 10.9887 20.7347 4
      vertex 11.0888 20.8557 0
      vertex 11.0888 20.8557 4
    endloop
  endfacet
  facet normal 0.770513 -0.637424 0
    outer loop
      vertex 11.0888 20.8557 0
      vertex 10.9887 20.7347 4
      vertex 10.9887 20.7347 0
    endloop
  endfacet
  facet normal 0 -1 0
    outer loop
      vertex 11.9215 21.2475 0
      vertex 12.0785 21.2475 4
      vertex 11.9215 21.2475 4
    endloop
  endfacet
  facet normal 0 -1 -0
    outer loop
      vertex 12.0785 21.2475 4
      vertex 11.9215 21.2475 0
      vertex 12.0785 21.2475 0
    endloop
  endfacet
  facet normal 0.587907 0.808929 -0
    outer loop
      vertex 11.3302 18.9446 0
      vertex 11.2032 19.0369 4
      vertex 11.3302 18.9446 4
    endloop
  endfacet
  facet normal 0.587907 0.808929 0
    outer loop
      vertex 11.2032 19.0369 4
      vertex 11.3302 18.9446 0
      vertex 11.2032 19.0369 0
    endloop
  endfacet
  facet normal 0.124897 -0.99217 0
    outer loop
      vertex 11.7658 21.2279 0
      vertex 11.9215 21.2475 4
      vertex 11.7658 21.2279 4
    endloop
  endfacet
  facet normal 0.124897 -0.99217 0
    outer loop
      vertex 11.9215 21.2475 4
      vertex 11.7658 21.2279 0
      vertex 11.9215 21.2475 0
    endloop
  endfacet
  facet normal -0.68445 0.72906 0
    outer loop
      vertex 12.9112 19.1443 0
      vertex 12.7968 19.0369 4
      vertex 12.9112 19.1443 4
    endloop
  endfacet
  facet normal -0.68445 0.72906 0
    outer loop
      vertex 12.7968 19.0369 4
      vertex 12.9112 19.1443 0
      vertex 12.7968 19.0369 0
    endloop
  endfacet
  facet normal 0.248973 0.96851 -0
    outer loop
      vertex 11.7658 18.7721 0
      vertex 11.6137 18.8112 4
      vertex 11.7658 18.7721 4
    endloop
  endfacet
  facet normal 0.248973 0.96851 0
    outer loop
      vertex 11.6137 18.8112 4
      vertex 11.7658 18.7721 0
      vertex 11.6137 18.8112 0
    endloop
  endfacet
  facet normal 0.368312 0.929702 -0
    outer loop
      vertex 11.6137 18.8112 0
      vertex 11.4678 18.869 4
      vertex 11.6137 18.8112 4
    endloop
  endfacet
  facet normal 0.368312 0.929702 0
    outer loop
      vertex 11.4678 18.869 4
      vertex 11.6137 18.8112 0
      vertex 11.4678 18.869 0
    endloop
  endfacet
  facet normal -1 0 0
    outer loop
      vertex 0 48.0498 -32.0498
      vertex 0 44.0498 -28.0498
      vertex 0 48.0498 -24.0498
    endloop
  endfacet
  facet normal -1 0 0
    outer loop
      vertex 0 48.0498 -32.0498
      vertex 0 40.0498 -28.0498
      vertex 0 44.0498 -28.0498
    endloop
  endfacet
  facet normal -1 0 0
    outer loop
      vertex 0 30.0498 -32.0498
      vertex 0 40.0498 -28.0498
      vertex 0 48.0498 -32.0498
    endloop
  endfacet
  facet normal -1 0 0
    outer loop
      vertex 0 30.0498 -6.0498
      vertex 0 40.0498 -28.0498
      vertex 0 30.0498 -32.0498
    endloop
  endfacet
  facet normal -1 0 0
    outer loop
      vertex 0 40.0498 -28.0498
      vertex 0 30.0498 -6.0498
      vertex 0 40.0498 3.9502
    endloop
  endfacet
  facet normal -1 0 0
    outer loop
      vertex 0 0.0498047 3.9502
      vertex 0 30.0498 -6.0498
      vertex 0 0.0498047 -6.0498
    endloop
  endfacet
  facet normal -1 0 0
    outer loop
      vertex 0 30.0498 -6.0498
      vertex 0 0.0498047 3.9502
      vertex 0 40.0498 3.9502
    endloop
  endfacet
  facet normal -1 -0 0
    outer loop
      vertex 0 48.0498 -24.0498
      vertex 0 44.0498 -28.0498
      vertex 0 44.0498 -24.0498
    endloop
  endfacet
  facet normal 1 0 0
    outer loop
      vertex 4 40.0459 0
      vertex 4 40.0498 3.9502
      vertex 4 40.0459 3.9502
    endloop
  endfacet
  facet normal 1 0 0
    outer loop
      vertex 4 44.0498 -28.0498
      vertex 4 48.0498 -24.0498
      vertex 4 44.0498 -24.0498
    endloop
  endfacet
  facet normal 1 0 0
    outer loop
      vertex 4 48.0498 -24.0498
      vertex 4 44.0498 -28.0498
      vertex 4 48.0498 -32.0498
    endloop
  endfacet
  facet normal 1 -0 0
    outer loop
      vertex 4 40.0498 -28.0498
      vertex 4 48.0498 -32.0498
      vertex 4 44.0498 -28.0498
    endloop
  endfacet
  facet normal 1 0 0
    outer loop
      vertex 4 40.0498 3.9502
      vertex 4 40.0459 0
      vertex 4 40.0498 -28.0498
    endloop
  endfacet
  facet normal 1 -0 0
    outer loop
      vertex 4 30.0498 -6.0498
      vertex 4 40.0498 -28.0498
      vertex 4 40.0459 0
    endloop
  endfacet
  facet normal 1 0 0
    outer loop
      vertex 4 40.0498 -28.0498
      vertex 4 30.0498 -32.0498
      vertex 4 48.0498 -32.0498
    endloop
  endfacet
  facet normal 1 0 0
    outer loop
      vertex 4 30.0498 -32.0498
      vertex 4 40.0498 -28.0498
      vertex 4 30.0498 -6.0498
    endloop
  endfacet
  facet normal 1 -0 0
    outer loop
      vertex 4 0.0498047 0
      vertex 4 30.0498 -6.0498
      vertex 4 40.0459 0
    endloop
  endfacet
  facet normal 1 0 0
    outer loop
      vertex 4 30.0498 -6.0498
      vertex 4 0.0498047 0
      vertex 4 0.0498047 -6.0498
    endloop
  endfacet
  facet normal 0 -1 0
    outer loop
      vertex 0 30.0498 -32.0498
      vertex 4 30.0498 -6.0498
      vertex 0 30.0498 -6.0498
    endloop
  endfacet
  facet normal 0 -1 -0
    outer loop
      vertex 4 30.0498 -6.0498
      vertex 0 30.0498 -32.0498
      vertex 4 30.0498 -32.0498
    endloop
  endfacet
  facet normal 0 0 -1
    outer loop
      vertex 0 30.0498 -32.0498
      vertex 4 48.0498 -32.0498
      vertex 4 30.0498 -32.0498
    endloop
  endfacet
  facet normal -0 0 -1
    outer loop
      vertex 4 48.0498 -32.0498
      vertex 0 30.0498 -32.0498
      vertex 0 48.0498 -32.0498
    endloop
  endfacet
  facet normal 0 1 -0
    outer loop
      vertex 4 48.0498 -32.0498
      vertex 0 48.0498 -24.0498
      vertex 4 48.0498 -24.0498
    endloop
  endfacet
  facet normal 0 1 0
    outer loop
      vertex 0 48.0498 -24.0498
      vertex 4 48.0498 -32.0498
      vertex 0 48.0498 -32.0498
    endloop
  endfacet
  facet normal -0 0 1
    outer loop
      vertex 0 48.0498 -24.0498
      vertex 4 44.0498 -24.0498
      vertex 4 48.0498 -24.0498
    endloop
  endfacet
  facet normal 0 0 1
    outer loop
      vertex 4 44.0498 -24.0498
      vertex 0 48.0498 -24.0498
      vertex 0 44.0498 -24.0498
    endloop
  endfacet
  facet normal 0 -1 0
    outer loop
      vertex 0 44.0498 -28.0498
      vertex 4 44.0498 -24.0498
      vertex 0 44.0498 -24.0498
    endloop
  endfacet
  facet normal 0 -1 -0
    outer loop
      vertex 4 44.0498 -24.0498
      vertex 0 44.0498 -28.0498
      vertex 4 44.0498 -28.0498
    endloop
  endfacet
  facet normal -0 0 1
    outer loop
      vertex 0 44.0498 -28.0498
      vertex 4 40.0498 -28.0498
      vertex 4 44.0498 -28.0498
    endloop
  endfacet
  facet normal 0 0 1
    outer loop
      vertex 4 40.0498 -28.0498
      vertex 0 44.0498 -28.0498
      vertex 0 40.0498 -28.0498
    endloop
  endfacet
  facet normal 0 1 -0
    outer loop
      vertex 4 40.0498 -28.0498
      vertex 0 40.0498 3.9502
      vertex 4 40.0498 3.9502
    endloop
  endfacet
  facet normal 0 1 0
    outer loop
      vertex 0 40.0498 3.9502
      vertex 4 40.0498 -28.0498
      vertex 0 40.0498 -28.0498
    endloop
  endfacet
  facet normal 0 0 1
    outer loop
      vertex 4 40.0498 3.9502
      vertex 0.0458984 40.0459 3.9502
      vertex 4 40.0459 3.9502
    endloop
  endfacet
  facet normal -0 0 1
    outer loop
      vertex 0 40.0498 3.9502
      vertex 0.0458984 40.0459 3.9502
      vertex 4 40.0498 3.9502
    endloop
  endfacet
  facet normal 0 0 1
    outer loop
      vertex 0 0.0498047 3.9502
      vertex 0.0458984 40.0459 3.9502
      vertex 0 40.0498 3.9502
    endloop
  endfacet
  facet normal 0 0 1
    outer loop
      vertex 0.0458984 40.0459 3.9502
      vertex 0 0.0498047 3.9502
      vertex 0.0458984 0.0498047 3.9502
    endloop
  endfacet
  facet normal 0 -1 0
    outer loop
      vertex 0 0.0498047 3.9502
      vertex 0.0458984 0.0498047 0
      vertex 0.0458984 0.0498047 3.9502
    endloop
  endfacet
  facet normal 0 -1 0
    outer loop
      vertex 0 0.0498047 -6.0498
      vertex 0.0458984 0.0498047 0
      vertex 0 0.0498047 3.9502
    endloop
  endfacet
  facet normal 0 -1 0
    outer loop
      vertex 0 0.0498047 -6.0498
      vertex 4 0.0498047 0
      vertex 0.0458984 0.0498047 0
    endloop
  endfacet
  facet normal 0 -1 -0
    outer loop
      vertex 4 0.0498047 0
      vertex 0 0.0498047 -6.0498
      vertex 4 0.0498047 -6.0498
    endloop
  endfacet
  facet normal 0 0 -1
    outer loop
      vertex 0 0.0498047 -6.0498
      vertex 4 30.0498 -6.0498
      vertex 4 0.0498047 -6.0498
    endloop
  endfacet
  facet normal -0 0 -1
    outer loop
      vertex 4 30.0498 -6.0498
      vertex 0 0.0498047 -6.0498
      vertex 0 30.0498 -6.0498
    endloop
  endfacet
endsolid OpenSCAD_Model
